<svg width="900" height="900" viewBox="0 0 900 900" fill="none" xmlns="http://www.w3.org/2000/svg">
<rect width="900" height="900" fill="#0F172A"/>
<g clip-path="url(#clip0_1_2)">
<path d="M783.871 150H116.129C51.9927 150 0 203.726 0 270V630C0 696.274 51.9927 750 116.129 750H783.871C848.007 750 900 696.274 900 630V270C900 203.726 848.007 150 783.871 150Z" fill="#0F172A"/>
<path d="M809.597 603.471C816.951 614.477 826.68 622.458 831.367 634.426C825.959 639.601 819.923 636.994 814.488 637.039C785.462 637.279 756.425 636.753 727.41 637.39C717.083 637.617 710.419 633.949 704.28 625.542C677.769 589.24 650.469 553.552 624.03 517.196C617.603 508.359 610.837 503.847 599.877 504.402C583.949 505.208 567.934 505.131 551.998 504.428C541.12 503.949 537.651 508.267 537.815 519.249C538.315 552.736 537.418 586.253 538.308 619.723C538.683 633.857 533.793 637.909 520.747 637.434C498.039 636.608 475.269 636.908 452.547 637.554C442.867 637.829 438.234 635.186 438.277 624.366C438.537 558.377 438.587 492.387 438.361 426.398C438.317 413.794 443.804 410.258 455.272 410.318C520.583 410.662 585.897 410.47 651.21 410.41C660.387 410.402 669.541 410.501 678.592 408.049C699.716 402.327 710.509 388.358 710.608 365.979C710.708 343.564 700.275 330.383 678.373 324.421C670.279 322.218 662.163 321.945 653.934 321.948C588.137 321.968 522.337 321.613 456.546 322.245C442.622 322.378 437.493 317.862 438.104 303.441C438.951 283.483 438.596 263.449 438.14 243.463C437.874 231.779 441.296 226.451 453.851 226.53C530.288 227.007 606.73 226.497 683.168 226.858C748.243 227.165 797.755 267.079 809.994 328.187C823.817 397.202 795.728 458.229 737.129 486.56C734.12 488.014 731.218 489.704 725.581 492.721C753.816 529.94 781.388 566.284 809.597 603.471Z" fill="white"/>
<path d="M402.187 263.473C402.022 347.595 402.593 430.527 401.637 513.441C400.824 583.892 353.263 634.632 285.017 636.486C218.318 638.298 151.541 637.009 84.7998 637.326C75.7131 637.369 71.6441 634.133 71.6917 624.312C71.9242 576.335 71.8579 528.356 71.7131 480.379C71.6874 471.862 74.5474 467.249 83.4206 467.323C108.085 467.53 132.753 467.582 157.417 467.426C166.053 467.371 169.569 471.286 169.39 480.128C169.097 494.615 169.906 509.143 169.191 523.597C168.593 535.663 172.381 540.82 184.736 540.439C209.382 539.677 234.066 540.354 258.727 539.968C289.991 539.48 303.582 525.436 303.7 492.817C303.96 420.352 303.794 347.884 303.808 275.418C303.81 262.924 304.09 250.423 303.775 237.938C303.563 229.536 307.109 226.406 315.031 226.424C340.169 226.484 365.308 226.276 390.444 225.921C398.911 225.801 403.19 229.731 403.125 238.335C403.064 246.317 402.565 254.295 402.187 263.473Z" fill="white"/>
</g>
<defs>
<clipPath id="clip0_1_2">
<rect width="900" height="600" fill="white" transform="translate(0 150)"/>
</clipPath>
</defs>
</svg>
