<svg version="1.1" id="Layer_1" xmlns="http://www.w3.org/2000/svg" xmlns:xlink="http://www.w3.org/1999/xlink" x="0px" y="0px"
	 width="100%" viewBox="300 210 420 260" enable-background="new 0 0 1024 672" xml:space="preserve">
<path fill="#000000" d="M638.861206,401.157043 C641.394348,404.825623 644.745361,407.486084 646.359680,411.475250 C644.496948,413.200348 642.417908,412.331421 640.545959,412.346436 C630.548096,412.426392 620.546387,412.250854 610.552429,412.463318 C606.995422,412.538940 604.699890,411.316162 602.585327,408.514099 C593.453735,396.413422 584.050415,384.517456 574.943542,372.398651 C572.729858,369.452881 570.399414,367.948944 566.624146,368.133881 C561.138062,368.402618 555.621704,368.376892 550.132507,368.142761 C546.385620,367.982971 545.190735,369.422302 545.247253,373.083038 C545.419739,384.245453 545.110779,395.417725 545.417053,406.574432 C545.546326,411.285614 543.862122,412.636169 539.368286,412.477936 C531.546753,412.202606 523.703735,412.302582 515.877197,412.517975 C512.543152,412.609772 510.947266,411.728577 510.961945,408.121857 C511.051544,386.125702 511.068970,364.128967 510.990845,342.132812 C510.975922,337.931488 512.865723,336.752502 516.815918,336.772644 C539.311951,336.887451 561.808899,336.823395 584.305542,336.803375 C587.466614,336.800568 590.619629,336.833618 593.737183,336.016327 C601.013184,334.108826 604.730896,329.452728 604.765076,321.992828 C604.799316,314.521179 601.205872,310.127777 593.661804,308.140350 C590.873840,307.405823 588.078491,307.315033 585.243896,307.315887 C562.580566,307.322571 539.916199,307.204468 517.254822,307.414917 C512.458557,307.459473 510.692017,305.953857 510.902649,301.146912 C511.194183,294.494354 511.071899,287.816376 510.915009,281.154266 C510.823273,277.259521 512.002014,275.483673 516.326355,275.509827 C542.654602,275.668854 568.984741,275.499054 595.313416,275.619232 C617.728027,275.721527 634.782227,289.026398 638.997925,309.395721 C643.759094,332.400726 634.084167,352.743134 613.900085,362.186584 C612.863647,362.671448 611.863831,363.234497 609.922180,364.240204 C619.647766,376.646515 629.144836,388.761444 638.861206,401.157043 z"/>
<path fill="#000000" d="M498.530945,287.824219 C498.474335,315.864960 498.671082,343.509033 498.341614,371.146881 C498.061646,394.630524 481.679504,411.544098 458.172699,412.162048 C435.198456,412.766052 412.197632,412.336456 389.208832,412.442078 C386.078979,412.456451 384.677429,411.377686 384.693817,408.103912 C384.773895,392.111694 384.751068,376.118774 384.701202,360.126312 C384.692352,357.287231 385.677460,355.749725 388.733765,355.774475 C397.229340,355.843292 405.725922,355.860809 414.221558,355.808563 C417.196167,355.790283 418.407196,357.095276 418.345581,360.042755 C418.244690,364.871582 418.523346,369.714233 418.276825,374.532379 C418.071045,378.554474 419.375580,380.273499 423.631439,380.146240 C432.120544,379.892426 440.622742,380.117920 449.117157,379.989410 C459.885773,379.826538 464.567291,375.145203 464.607697,364.272400 C464.697479,340.117188 464.640137,315.961426 464.644897,291.805908 C464.645721,287.641205 464.741974,283.474274 464.633575,279.312561 C464.560638,276.511993 465.782013,275.468536 468.510834,275.474762 C477.169189,275.494507 485.828400,275.425262 494.486115,275.306976 C497.402649,275.267151 498.876648,276.576843 498.854095,279.445068 C498.833160,282.105621 498.661438,284.765015 498.530945,287.824219 z"/>
</svg>